<svg width="32" height="32" viewBox="0 0 32 32" fill="none" xmlns="http://www.w3.org/2000/svg">
  <rect width="32" height="32" rx="8" fill="#0A0A0F"/>
  
  <!-- Circuit/Network Pattern -->
  <!-- Central node -->
  <circle cx="16" cy="16" r="3" fill="#5A5DFF"/>
  
  <!-- Corner nodes -->
  <circle cx="8" cy="8" r="2" fill="#B266FF"/>
  <circle cx="24" cy="8" r="2" fill="#B266FF"/>
  <circle cx="8" cy="24" r="2" fill="#B266FF"/>
  <circle cx="24" cy="24" r="2" fill="#B266FF"/>
  
  <!-- Side nodes -->
  <circle cx="16" cy="6" r="1.5" fill="#5A5DFF" opacity="0.8"/>
  <circle cx="16" cy="26" r="1.5" fill="#5A5DFF" opacity="0.8"/>
  <circle cx="6" cy="16" r="1.5" fill="#5A5DFF" opacity="0.8"/>
  <circle cx="26" cy="16" r="1.5" fill="#5A5DFF" opacity="0.8"/>
  
  <!-- Connection lines -->
  <path d="M16 16L8 8M16 16L24 8M16 16L8 24M16 16L24 24" stroke="#5A5DFF" stroke-width="1" opacity="0.4"/>
  <path d="M16 16L16 6M16 16L16 26M16 16L6 16M16 16L26 16" stroke="#5A5DFF" stroke-width="1" opacity="0.4"/>
  
  <!-- Data flow indicators -->
  <path d="M14 14L18 18M18 14L14 18" stroke="#B266FF" stroke-width="1" opacity="0.6"/>
</svg>