<svg width="32" height="32" viewBox="0 0 32 32" fill="none" xmlns="http://www.w3.org/2000/svg">
  <!-- Background Circle -->
  <circle cx="16" cy="16" r="15" fill="#0B0B0F" stroke="#4DB5FF" stroke-width="1"/>
  
  <!-- Gator AI Logo -->
  <g transform="translate(8, 8)">
    <!-- AI Circuit Pattern -->
    <path
      d="M4 8L8 4L12 8L16 4L20 8L22 6"
      stroke="#4DB5FF"
      stroke-width="1.5"
      stroke-linecap="round"
      stroke-linejoin="round"
      opacity="0.8"
    />
    
    <!-- Neural Network Nodes -->
    <circle cx="8" cy="4" r="1.5" fill="#4DB5FF" opacity="0.9" />
    <circle cx="12" cy="8" r="1.5" fill="#4DB5FF" opacity="0.9" />
    <circle cx="16" cy="4" r="1.5" fill="#4DB5FF" opacity="0.9" />
    <circle cx="20" cy="8" r="1.5" fill="#4DB5FF" opacity="0.9" />
    
    <!-- Gator Head Shape -->
    <path
      d="M6 2C4 2 2 4 2 6C2 8 4 10 6 10C8 10 10 8 10 6C10 4 8 2 6 2Z"
      fill="#4DB5FF"
      opacity="0.1"
      stroke="#4DB5FF"
      stroke-width="1"
    />
    
    <!-- Gator Eye -->
    <circle cx="5" cy="4" r="1" fill="#4DB5FF" opacity="0.9" />
    
    <!-- AI Sparkles -->
    <path
      d="M14 2L15 0L16 2L18 3L16 4L15 6L14 4L12 3L14 2Z"
      fill="#4DB5FF"
      opacity="0.6"
    />
    <path
      d="M2 12L3 10L4 12L6 13L4 14L3 16L2 14L0 13L2 12Z"
      fill="#4DB5FF"
      opacity="0.6"
    />
    
    <!-- Circuit Connections -->
    <path
      d="M0 6L2 4L4 6"
      stroke="#4DB5FF"
      stroke-width="1"
      stroke-linecap="round"
      opacity="0.5"
    />
    <path
      d="M18 6L20 4L22 6"
      stroke="#4DB5FF"
      stroke-width="1"
      stroke-linecap="round"
      opacity="0.5"
    />
  </g>
</svg>
